<svg xmlns="http://www.w3.org/2000/svg" xmlns:xlink="http://www.w3.org/1999/xlink" viewBox="0 0 750 750"><defs><style>.cls-1,.cls-4{fill:none;}.cls-2,.cls-3,.cls-6{fill:#fff;}.cls-3{font-size:48px;font-family:Roboto-Bold, Roboto;font-weight:700;}.cls-4{stroke:#fff;stroke-miterlimit:10;stroke-width:3px;}.cls-5{opacity:0.5;}.cls-6{font-size:36px;font-family:Roboto-Light, Roboto;font-weight:300;}.cls-7{clip-path:url(#clip-path);}.cls-8{clip-path:url(#clip-path-2);}</style><clipPath id="clip-path"><rect class="cls-1" x="350.1" y="6.5" width="24.9" height="69"/></clipPath><clipPath id="clip-path-2"><rect class="cls-1" x="375" y="6.5" width="24.9" height="69"/></clipPath></defs><g id="Border"><path class="cls-2" d="M375,2A373.1,373.1,0,0,1,520.19,718.69,373.1,373.1,0,0,1,229.81,31.31,370.67,370.67,0,0,1,375,2m0-2C167.89,0,0,167.89,0,375S167.89,750,375,750,750,582.11,750,375,582.11,0,375,0Z"/></g><g id="Points"><text class="cls-3" transform="translate(357.92 120.57) scale(0.91 1)">N</text><text class="cls-3" transform="translate(120.57 395.77) rotate(-90) scale(0.91 1)">W</text><text class="cls-3" transform="translate(390.08 629.43) rotate(180) scale(0.91 1)">S</text><text class="cls-3" transform="translate(629.43 361.07) rotate(90) scale(0.91 1)">E</text></g><g id="Large_Ticks" data-name="Large Ticks"><line class="cls-4" x1="140.95" y1="141.65" x2="164.99" y2="165.7"/><line class="cls-4" x1="44.5" y1="375.5" x2="78.5" y2="375.5"/><line class="cls-4" x1="141.65" y1="609.05" x2="165.7" y2="585.01"/><line class="cls-4" x1="375.5" y1="705.5" x2="375.5" y2="671.5"/><line class="cls-4" x1="609.05" y1="608.35" x2="585.01" y2="584.3"/><line class="cls-4" x1="705.5" y1="374.5" x2="671.5" y2="374.5"/><line class="cls-4" x1="608.35" y1="140.95" x2="584.3" y2="164.99"/></g><g id="Small_Ticks" data-name="Small Ticks" class="cls-5"><line class="cls-4" x1="331.37" y1="47.39" x2="334.24" y2="69.2"/><line class="cls-4" x1="288.98" y1="55.89" x2="294.67" y2="77.14"/><line class="cls-4" x1="248.06" y1="69.85" x2="256.48" y2="90.17"/><line class="cls-4" x1="209.32" y1="89.03" x2="220.32" y2="108.08"/><line class="cls-4" x1="173.41" y1="113.1" x2="186.8" y2="130.55"/><line class="cls-4" x1="140.95" y1="141.65" x2="156.5" y2="157.21"/><line class="cls-4" x1="112.49" y1="174.2" x2="129.95" y2="187.59"/><line class="cls-4" x1="88.53" y1="210.18" x2="107.58" y2="221.18"/><line class="cls-4" x1="69.47" y1="248.99" x2="89.79" y2="257.4"/><line class="cls-4" x1="55.63" y1="289.94" x2="76.88" y2="295.64"/><line class="cls-4" x1="47.26" y1="332.36" x2="69.07" y2="335.23"/><line class="cls-4" x1="44.5" y1="375.5" x2="66.5" y2="375.5"/><line class="cls-4" x1="47.39" y1="418.63" x2="69.2" y2="415.76"/><line class="cls-4" x1="55.89" y1="461.02" x2="77.14" y2="455.33"/><line class="cls-4" x1="69.85" y1="501.94" x2="90.17" y2="493.52"/><line class="cls-4" x1="89.03" y1="540.68" x2="108.08" y2="529.68"/><line class="cls-4" x1="113.1" y1="576.59" x2="130.55" y2="563.2"/><line class="cls-4" x1="141.65" y1="609.05" x2="157.21" y2="593.5"/><line class="cls-4" x1="174.2" y1="637.51" x2="187.59" y2="620.05"/><line class="cls-4" x1="210.18" y1="661.47" x2="221.18" y2="642.42"/><line class="cls-4" x1="248.99" y1="680.53" x2="257.4" y2="660.21"/><line class="cls-4" x1="289.94" y1="694.37" x2="295.64" y2="673.12"/><line class="cls-4" x1="332.36" y1="702.74" x2="335.23" y2="680.93"/><line class="cls-4" x1="375.5" y1="705.5" x2="375.5" y2="683.5"/><line class="cls-4" x1="418.63" y1="702.61" x2="415.76" y2="680.8"/><line class="cls-4" x1="461.02" y1="694.11" x2="455.33" y2="672.86"/><line class="cls-4" x1="501.94" y1="680.15" x2="493.52" y2="659.83"/><line class="cls-4" x1="540.68" y1="660.97" x2="529.68" y2="641.92"/><line class="cls-4" x1="576.59" y1="636.9" x2="563.2" y2="619.45"/><line class="cls-4" x1="609.05" y1="608.35" x2="593.5" y2="592.79"/><line class="cls-4" x1="637.51" y1="575.8" x2="620.05" y2="562.41"/><line class="cls-4" x1="661.47" y1="539.82" x2="642.42" y2="528.82"/><line class="cls-4" x1="680.53" y1="501.01" x2="660.21" y2="492.6"/><line class="cls-4" x1="694.37" y1="460.06" x2="673.12" y2="454.36"/><line class="cls-4" x1="702.74" y1="417.64" x2="680.93" y2="414.77"/><line class="cls-4" x1="705.5" y1="374.5" x2="683.5" y2="374.5"/><line class="cls-4" x1="702.61" y1="331.37" x2="680.8" y2="334.24"/><line class="cls-4" x1="694.11" y1="288.98" x2="672.86" y2="294.67"/><line class="cls-4" x1="680.15" y1="248.06" x2="659.83" y2="256.48"/><line class="cls-4" x1="660.97" y1="209.32" x2="641.92" y2="220.32"/><line class="cls-4" x1="636.9" y1="173.41" x2="619.45" y2="186.8"/><line class="cls-4" x1="608.35" y1="140.95" x2="592.79" y2="156.5"/><line class="cls-4" x1="575.8" y1="112.49" x2="562.41" y2="129.95"/><line class="cls-4" x1="539.82" y1="88.53" x2="528.82" y2="107.58"/><line class="cls-4" x1="501.01" y1="69.47" x2="492.6" y2="89.79"/><line class="cls-4" x1="460.06" y1="55.63" x2="454.36" y2="76.88"/><line class="cls-4" x1="417.64" y1="47.26" x2="414.77" y2="69.07"/></g><g id="Degrees"><text class="cls-6" transform="translate(112.12 154.45) rotate(-45)">315</text><text class="cls-6" transform="translate(33.16 404.93) rotate(-90)">270</text><text class="cls-6" transform="translate(154.45 637.88) rotate(-135)">225</text><text class="cls-6" transform="translate(404.93 716.84) rotate(180)">180</text><text class="cls-6" transform="translate(637.88 595.55) rotate(135)">135</text><text class="cls-6" transform="translate(716.84 355.05) rotate(90)">90</text><text class="cls-6" transform="translate(602.61 119.18) rotate(45)">45</text></g><g id="Arrow"><g id="_Mirror_Repeat_" data-name="&lt;Mirror Repeat&gt;"><g class="cls-7"><polygon class="cls-2" points="375.75 6.5 350.1 75.5 375.75 63.5 375.75 6.5"/></g></g><g id="_Mirror_Repeat_2" data-name="&lt;Mirror Repeat&gt;"><g class="cls-8"><polygon class="cls-2" points="374.25 6.5 399.9 75.5 374.25 63.5 374.25 6.5"/></g></g></g></svg>